<mxfile host="app.diagrams.net" modified="2024-04-24T11:11:48.246Z" agent="Mozilla/5.0 (X11; Ubuntu; Linux x86_64; rv:124.0) Gecko/20100101 Firefox/124.0" version="24.2.9" etag="3jJs5ZguCddhjnvX0dZW" type="github">
  <diagram name="Страница — 1" id="PxH1e6X6RLJacViL6oF9">
    <mxGraphModel>
      <root>
        <mxCell id="0" />
        <mxCell id="1" parent="0" />
      </root>
    </mxGraphModel>
  </diagram>
</mxfile>
